<svg xmlns="http://www.w3.org/2000/svg" x="0px"
	 y="0px" width="64px" height="64px" viewBox="0 0 64 64" xml:space="preserve">
	<g>
		<path fill-rule="evenodd" fill="#1A85F8" d="M45.354,29.9C45.354,17.983,32.5,9,32.5,9C18.529,20.55,20.206,30.45,20.206,30.45
			C12.289,24.675,4,27.15,4,27.15s2.515,4.125,3.912,7.149c1.397,3.025,2.515,6.05,6.147,10.45c3.633,4.4,8.941,6.6,8.941,6.6
			s-2.235-1.466-2.235-5.5c0-5.041,5.588-6.05,5.588-6.05c-0.932-0.825-1.677-2.108-1.677-4.399c0-2.292,2.049-4.309,4.471-6.051
			c2.422-1.741,3.912-3.85,3.912-3.85c0,0.458,2.049,3.208,3.354,4.4c1.304,1.191,4.471,2.566,4.471,5.5
			c0,2.933-1.677,4.399-1.677,4.399c3.26,0.459,5.588,3.392,5.588,6.05c0,2.659-1.118,4.4-1.118,4.4
			c8.569-3.941,10.898-10.908,12.854-15.4C58.485,30.358,61,26.6,61,26.6C50.755,26.6,45.354,29.9,45.354,29.9z"/>
	</g>
	<g >
		<path fill-rule="evenodd" fill="#CBAD29" d="M35.854,47.5c2.234,0,3.818-2.842,2.793-4.4c-1.023-1.558-2.142-3.3-5.588-3.3
			c-3.446,0-5.588,2.384-5.588,5.5c0,3.117,2.98,7.608,8.941,7.7c0,0-5.402-2.384-3.912-7.7C32.5,45.3,33.617,47.5,35.854,47.5z"/>
	</g>
</svg>
