<?xml version="1.0" encoding="utf-8"?>
<!-- Generator: Adobe Illustrator 16.0.0, SVG Export Plug-In . SVG Version: 6.00 Build 0)  -->
<svg version="1.2" baseProfile="tiny" id="图层_1"
	 xmlns="http://www.w3.org/2000/svg" xmlns:xlink="http://www.w3.org/1999/xlink" x="0px" y="0px" width="520px" height="520px"
	 viewBox="0 0 520 520" xml:space="preserve">
<path fill="#1A85F8" d="M368.729,245.33c0-107.336-107.727-188.246-107.727-188.246
	C143.909,161.115,157.959,250.282,157.959,250.282c-66.354-52.012-135.827-29.72-135.827-29.72s21.079,37.156,32.788,64.4
	c11.708,27.244,21.076,54.494,51.519,94.126c30.444,39.631,74.94,59.44,74.94,59.44s-18.735-13.21-18.735-49.535
	c0-45.414,46.837-54.488,46.837-54.488c-7.808-7.437-14.052-18.993-14.052-39.632c0-20.646,17.175-38.809,37.47-54.496
	c20.294-15.693,32.785-34.679,32.785-34.679c0,4.129,17.172,28.897,28.105,39.631c10.934,10.734,37.47,23.122,37.47,49.543
	c0,26.414-14.053,39.632-14.053,39.632c27.327,4.122,46.841,30.543,46.841,54.488c0,23.944-9.371,39.631-9.371,39.631
	c71.82-35.509,91.334-98.249,107.722-138.71c16.395-40.454,37.47-74.304,37.47-74.304C413.993,215.61,368.729,245.33,368.729,245.33
	z"/>
<path fill="#F8CD0F" d="M289.107,403.856c18.728,0,32.003-25.599,23.41-39.632c-8.586-14.034-17.957-29.72-46.834-29.72
	c-28.884,0-46.834,21.462-46.834,49.535c0,28.074,24.977,68.528,74.94,69.352c0,0-45.278-21.462-32.787-69.352
	C261.002,384.04,270.366,403.856,289.107,403.856z"/>
</svg>
