<svg version="1.2" baseProfile="tiny" xmlns="http://www.w3.org/2000/svg" xmlns:xlink="http://www.w3.org/1999/xlink" x="0px"
	 y="0px" width="120px" height="120px" viewBox="0 0 166 166" xml:space="preserve">

		<path fill-rule="evenodd" fill="#1A85F8" d="M106,79c0-21.667-23-38-23-38C58,62,61,80,61,80c-14.167-10.5-29-6-29-6s4.5,7.5,7,13
			s4.5,11,11,19s16,12,16,12s-4-2.667-4-10c0-9.167,10-11,10-11c-1.667-1.5-3-3.833-3-8s3.667-7.833,8-11s7-7,7-7
			c0,0.833,3.666,5.833,6,8s8,4.667,8,10s-3,8-3,8c5.834,0.833,10,6.167,10,11s-2,8-2,8c15.334-7.167,19.5-19.833,23-28s8-15,8-15
			C115.666,73,106,79,106,79z"/>

		<path fill-rule="evenodd" fill="#F8CD0F" d="M89,111c4,0,6.834-5.167,5-8s-3.834-6-10-6c-6.167,0-10,4.333-10,10
			s5.333,13.833,16,14c0,0-9.667-4.333-7-14C83,107,85,111,89,111z"/>

</svg>
