<?xml version="1.0" standalone="no"?><!DOCTYPE svg PUBLIC "-//W3C//DTD SVG 1.1//EN" "http://www.w3.org/Graphics/SVG/1.1/DTD/svg11.dtd"><svg t="1691200388173" class="icon" viewBox="0 0 1024 1024" version="1.1" xmlns="http://www.w3.org/2000/svg" p-id="1458" xmlns:xlink="http://www.w3.org/1999/xlink" width="200" height="200"><path d="M928 191.997 96 191.997c-8.837 0-16 7.163-16 16l0 32.004c0 8.835 7.163 15.998 16 15.998l832 0c8.837 0 16-7.163 16-15.998l0-32.004C944 199.161 936.837 191.997 928 191.997zM928 479.997 96 479.997c-8.837 0-16 7.163-16 16l0 32.004c0 8.835 7.163 15.998 16 15.998l832 0c8.837 0 16-7.163 16-15.998l0-32.004C944 487.161 936.837 479.997 928 479.997zM928 768.997 96 768.997c-8.837 0-16 7.163-16 16l0 32.004c0 8.835 7.163 15.998 16 15.998l832 0c8.837 0 16-7.163 16-15.998l0-32.004C944 776.161 936.837 768.997 928 768.997z" fill="#1296db" p-id="1459"></path></svg>