<?xml version="1.0" standalone="no"?><!DOCTYPE svg PUBLIC "-//W3C//DTD SVG 1.1//EN" "http://www.w3.org/Graphics/SVG/1.1/DTD/svg11.dtd"><svg t="1690859192546" class="icon" viewBox="0 0 1526 1024" version="1.1" xmlns="http://www.w3.org/2000/svg" p-id="11302" width="190" height="128" xmlns:xlink="http://www.w3.org/1999/xlink"><path d="M1353.323979-0.017127v832.069877c-14.592008 0.667944-29.115509 1.267381-43.793152 2.038086q-37.113711 1.952452-74.227422 4.093298c-22.692971 1.301635-45.368814 2.791664-68.061785 4.041918-38.312585 2.12372-76.62517 4.076171-114.937754 6.182764-23.378041 1.284508-46.738956 2.723156-70.116998 4.059045q-54.377495 3.099945-108.772117 6.14851l-72.17221 4.076171-106.716905 6.148511c-23.378041 1.353015-46.738956 2.774537-70.116997 4.059044-37.678894 2.089466-75.255028 4.076171-112.882543 6.165638-23.378041 1.301635-46.738956 2.75741-70.116997 4.059044-37.678894 2.089466-75.255028 4.076171-112.882543 6.165638-23.378041 1.301635-46.738956 2.75741-70.116997 4.059044-37.678894 2.089466-75.255028 4.076171-112.882542 6.165637-23.378041 1.301635-46.738956 2.740283-70.116998 4.059045q-37.576134 2.106593-75.169394 4.110425V71.521392c8.426371-0.685071 16.852742-1.541409 25.29624-2.003832 40.025262-2.12372 80.067651-4.110425 120.092912-6.182764 25.090718-1.301635 50.181437-2.723156 75.272155-4.059044q57.991244-3.099945 115.982488-6.148511c26.46086-1.387268 52.92172-2.70603 79.38258-4.076171q57.991244-3.048565 115.982488-6.148511c24.405648-1.318761 48.811295-2.75741 73.216943-4.041917 26.803395-1.421522 53.606791-2.75741 80.393059-4.110425s53.606791-2.688903 80.410186-4.093298q57.477441-3.014312 114.954882-6.131384l76.299761-4.076171q39.682727-2.089466 79.38258-4.093298L1118.344692 12.262767q39.682727-2.020959 79.382579-4.093298Q1235.868589 6.165637 1274.027033 4.093298 1313.675506 2.003832 1353.323979-0.017127zM1043.757607 351.304311c11.988739-5.703214 22.264801-10.49871 32.540864-15.414094 37.165091-18.034489 74.193169-36.394387 111.546654-54.03496a22.264801 22.264801 0 0 0 15.688122-24.86807c-1.524283-16.54446-0.359662-33.345822-0.359663-50.044423v-46.242279c-8.563385 1.027606-15.825136 2.294987-23.121139 2.70603-37.952923 2.192227-75.940099 4.110425-113.893022 6.234144-22.350435 1.250254-44.683743 2.911551-67.034179 3.990537-32.540863 1.575663-65.235868 2.774537-97.862365 4.178932-3.425354 0.154141-6.850708 0.770705-10.156175 0.633691a46.584815 46.584815 0 0 1-16.338938-1.59279c-24.508408-10.841246-48.657154-22.453196-73.919141-34.25354a61.656373 61.656373 0 0 0-4.298819 5.429186c-30.828186 48.845549-61.382344 97.845238-92.484559 146.451012-4.281693 6.67944-1.284508 8.135216 3.630875 9.899273 21.699618 7.809807 43.776025 14.694769 65.081727 23.583563 11.115274 4.658481 14.866037 0.428169 19.969814-8.152343 13.478768-22.658717 27.916635-44.752251 42.234615-66.914291a12.074373 12.074373 0 0 1 7.296004-5.377806c11.115274-1.233127 22.264801-1.609916 33.482836-2.27786 23.018379-1.370142 46.053885-2.911551 69.089391-4.024791 31.9243-1.558536 63.865726-2.75741 95.807153-4.196059 3.699382-0.171268 7.364511-0.993353 11.046767-1.198874 16.801362-0.959099 33.602723-1.815438 49.753267-2.688903 4.059045 10.755612-1.318761 14.609135-9.248456 18.428405-43.861659 21.065927-87.449289 42.731292-131.29382 63.814346a18.479785 18.479785 0 0 1-12.862205 1.027606c-28.601706-10.276062-56.963638-21.374209-85.445456-32.095567-22.470323-8.460624-22.487449-8.392117-35.829204 11.269414-1.712677 2.500508-3.545241 4.88113-5.138031 7.415892-7.415892 11.337922-14.780403 22.710097-22.436069 34.493315l66.794404 24.576915c-37.43912 18.548292-73.645112 36.634161-110.005245 54.291862a40.847347 40.847347 0 0 1-14.763276 2.569015c-11.663331 0.804958-23.360915 1.16462-34.989991 1.712677v63.249163c20.46649 0 40.402051 0.222648 60.337611-0.154141a33.260188 33.260188 0 0 0 13.410261-3.528115 15795.591998 15795.591998 0 0 0 148.095182-72.720266 57.032145 57.032145 0 0 1 53.092988-3.579495c37.678894 16.407446 76.745057 29.406664 115.639952 42.714165 19.456011 6.662314 37.884416 18.085869 59.943696 15.414093 8.392117-1.027606 16.852742-1.370142 25.279113-2.106593 8.974428-0.787831 17.948855-1.712677 26.632128-2.500508v-65.852432c-8.563385 1.010479-16.321812 2.500508-23.977479 2.637523a96.320956 96.320956 0 0 1-27.180184-1.712677c-16.06491-4.487214-31.616018-10.858372-47.321266-16.630094-21.562604-7.929695-43.073827-16.01353-66.297728-24.645422zM427.639176 205.007439v280.211088c-26.221085 1.866818-51.260423 3.87065-76.316888 5.360679q-56.946511 3.425354-113.944403 6.14851c-19.387504 0.959099-38.809261 1.216001-58.231018 2.1751-12.0915 0.599437-24.165873 1.952452-36.360134 2.980058v65.664037l196.067266-10.875499c-24.439901 32.249708-48.657154 63.488937-71.932435 95.34473a38.089937 38.089937 0 0 1-37.524754 19.010715 318.968968 318.968968 0 0 0-48.896929 1.712677c-11.783218 0.685071-23.515056 1.969579-36.223119 3.082819 0 19.918434-0.205521 39.939628 0.308282 59.943695a9.197076 9.197076 0 0 0 6.850708 5.891609c38.877768-2.243607 77.704156-5.138031 116.581925-7.570032 18.000235-1.11324 36.068978-1.301635 54.069214-2.294987a11.149527 11.149527 0 0 0 7.15899-4.007665c11.766091-15.037304 23.17252-30.365764 34.767343-45.540082 28.516072-37.250725 56.895131-74.604211 85.736612-111.615161 7.672793-9.847893 13.444515-22.144914 29.303904-22.795731 38.004303-1.541409 75.957226-3.990537 113.944402-5.977243 15.96215-0.839212 31.958553-1.130367 47.954957-2.346368 2.534762-0.188394 6.850708-3.939157 6.850708-6.131383a1004.690594 1004.690594 0 0 0 0-55.182454 7.450145 7.450145 0 0 0-5.292172-5.018144 2755.183524 2755.183524 0 0 0-64.002741 3.271214c-16.869869 1.027606-33.705484 2.312114-51.91124 3.579495V199.64676l-98.889971 5.343553z m278.207255 363.327304c3.425354 0 6.114257 0.137014 8.75178 0 20.278096-1.318761 40.556192-2.945804 60.851414-3.973411s40.83022-1.421522 61.24533-2.1751c3.699382-0.137014 7.381638-0.890592 11.081021-1.096113 19.524518-1.078987 39.031909-2.089466 59.703921-3.168453v140.182615l100.602648-5.46344v-139.668811c9.145695-1.096113 17.12677-2.397748 25.193479-2.945805 23.343788-1.541409 46.721829-2.980058 70.082744-4.093298 32.540863-1.558536 65.218741-2.774537 97.845238-4.161805 2.603269-0.102761 5.138031-0.47955 7.707046-0.719324v-66.965672c-18.308517 1.472902-35.966217 3.305467-53.846565 4.230312-32.249708 1.712677-64.53367 2.791664-96.800505 4.230313-3.425354 0.154141-6.645187 1.096113-10.002034 1.301634-13.290374 0.822085-26.597874 1.472902-40.676079 2.243607v-32.266835l-100.705409 6.062877v31.581764c-26.495114 1.832564-51.842733 3.92203-77.224607 5.257918-32.540863 1.712677-65.218741 2.688903-97.828112 4.264566-8.563385 0.411042-17.229531 1.883945-25.98131 2.894424v64.48229z m-231.759455-6.131384l-1.078986 3.887777 77.841171 151.845945 109.251667-5.908736a17.880348 17.880348 0 0 0-0.376789-3.836397c-22.795731-44.64949-45.831237-89.179092-68.318687-133.965596a21.459843 21.459843 0 0 0-24.731056-14.300853 309.292343 309.292343 0 0 1-37.559007 2.192226c-18.325644 0.325409-36.685542 0-55.011186 0z m230.748976 147.187463c5.51482 0 9.265583 0.171268 13.016345 0 25.690155-1.318761 51.500198-3.065692 77.275987-3.81927a13.427388 13.427388 0 0 0 13.701416-8.888793c15.414093-30.434271 31.564638-60.474626 47.372647-90.771882 4.898256-9.368343 9.539611-18.839447 15.157191-30.040355-10.430203 1.010479-18.839447 2.192227-27.14593 2.586142-19.712913 0.907719-39.391571 1.301635-59.172992 2.192227a19.610152 19.610152 0 0 0-20.552124 13.25612 280.57075 280.57075 0 0 1-16.133417 31.153595c-14.2666 27.556973-28.430439 55.1482-43.467743 84.315089z m522.965928-29.697819a14.31798 14.31798 0 0 0-0.873465-4.778369q-32.540863-53.98358-65.355755-107.898653a12.588176 12.588176 0 0 0-12.947839-7.039102c-24.354267 1.712677-48.777042 2.825917-73.148435 4.298819-5.754595 0.342535-11.492063 1.267381-18.257137 2.038086 23.12114 38.175571 45.351688 75.049507 67.890517 111.735049a13.530148 13.530148 0 0 0 8.85454 6.473919c21.442716-0.137014 42.816926-0.907719 64.328149-1.918198 9.693752-0.445296 19.35325-1.901071 29.509425-2.945805zM372.251201 454.92127c-0.239775-1.335888-0.137014-2.140846-0.496677-2.586142-20.860406-26.306719-42.234615-52.202396-62.40995-79.005791a37.233598 37.233598 0 0 0-37.336359-17.897475c-21.168688 2.603269-42.611404 2.945804-63.934233 4.40158-7.501525 0.513803-14.968797 1.455775-22.555957 2.209354 0.359662 2.106593 0.239775 2.928678 0.599437 3.425354 21.339956 26.769142 43.0567 53.281382 63.95136 80.393059a34.441935 34.441935 0 0 0 33.756864 16.578714c25.964184-2.740283 52.202396-3.014312 78.32072-4.589975a47.012984 47.012984 0 0 0 10.104795-2.877297z m1.181747-122.54204c-3.33972-4.658481-5.686088-8.237976-8.340737-11.594824-17.452179-22.05928-35.332527-43.810278-52.33941-66.212094-10.858372-14.283726-20.99742-26.306719-42.542897-22.025026a371.548153 371.548153 0 0 1-50.815127 2.637523c-11.252288 0.650817-22.470323 1.986705-35.195513 3.151325 26.306719 33.362948 51.688593 65.715417 77.395874 97.793858a12.19426 12.19426 0 0 0 8.974428 3.031439c21.613984-1.044733 43.227968-2.483382 64.824825-3.904904 12.108627-0.804958 24.200126-1.832564 38.038557-2.877297z" fill="#1296db" p-id="11303"></path></svg>